<?xml version="1.0" encoding="UTF-8"?>
<svg width="270px" height="56px" viewBox="0 0 270 56" version="1.1" xmlns="http://www.w3.org/2000/svg" xmlns:xlink="http://www.w3.org/1999/xlink">
    <!-- Generator: Sketch 42 (36781) - http://www.bohemiancoding.com/sketch -->
    <title>Group</title>
    <desc>Created with Sketch.</desc>
    <defs></defs>
    <g id="Page-1" stroke="none" stroke-width="1" fill="none" fill-rule="evenodd">
        <g id="Assets" fill-rule="nonzero">
            <g id="Group">
                <path d="M96.8,25 L102.5,25 L102.5,0.2 L92.6,0.2 L86.3,19.9 L79.5,0.2 L68.8,0.2 L68.8,25 L74.3,25 L74.3,2.4 L82.7,25.1 L88.5,25.1 L96.8,2.9 L96.8,25 Z M128,25 L128,20.7 L112,20.7 L112,15.2 L126.3,15.2 L126.3,10.6 L112.1,10.6 L112.1,5.2 L127.8,5.2 L125,0.2 L105.9,0.2 L106,25 L128,25 Z M156.2,25 L178.3,25 L178.3,20.7 L162.3,20.7 L162.3,15.2 L176.6,15.2 L176.6,10.6 L162.4,10.6 L162.4,5.2 L178.2,5.2 L178.2,0.3 L159.7,0.3 L156.1,5.3 L156.2,25 Z M138.9,25 L145.6,25 L145.6,17.7 L156.8,0.2 L151.2,0.2 L142.4,13.8 L134.4,0.2 L128.1,0.2 L138.9,17.8 L138.9,25 L138.9,25 Z M187,15.7 L193.2,15.7 L200.4,25 L207.9,25 L198.9,14.9 C198.9,14.9 204.6,14.1 204.6,8.3 C204.6,2.5 199.5,0.2 193.4,0.2 L181.3,0.2 L181.3,25 L186.9,25 L186.9,15.7 L187,15.7 Z M187.2,4.8 L193.8,4.8 C196.9,4.8 198.6,6.1 198.6,8.2 C198.6,10.2 196.8,11.2 194.3,11.2 L187.2,11.2 L187.2,4.8 Z M74.8,30.8 L68.7,30.8 L68.7,55.7 L87,55.7 L87,50.9 L74.8,50.9 L74.8,30.8 Z M95.7,45.8 L110,45.8 L110,41.5 L95.8,41.5 L95.8,36 L111.3,36 L109.7,30.9 L89.9,30.9 L89.9,55.8 L111.6,55.8 L111.6,50.9 L95.7,50.9 L95.7,45.8 Z M127.5,54.4 L119.1,30.8 L112.7,30.8 L121.6,55.7 L133.2,55.7 L142.4,30.8 L136,30.8 L127.5,54.4 Z M145.1,30.8 L144.5,30.8 L144.5,55.7 L145.1,55.7 L150.4,55.7 L151,55.7 L151,30.8 L150.4,30.8 L145.1,30.8 Z M176.2,53.2 L164.7,30.8 L154.6,30.8 L154.6,55.7 L160.1,55.7 L160.1,34.1 L170.9,55.8 L182.1,55.8 L182.2,30.9 L176.2,30.9 L176.2,53.2 Z M263.1,30.8 L263.1,53.2 L251.6,30.8 L241.5,30.8 L241.5,55.7 L247,55.7 L247,34.1 L257.8,55.8 L269,55.8 L269.1,30.9 L263.1,30.8 Z M224.3,30.8 C216,30.8 210.2,34 210.2,43.5 C210.2,52.9 216.1,55.8 225.2,55.8 C234.3,55.8 238.8,51.9 238.8,43.4 C238.8,34.9 232.5,30.8 224.3,30.8 Z M225,51 C219.3,51 215.6,49.3 215.6,43.4 C215.6,37.5 219.2,35.5 224.4,35.5 C229.5,35.5 233.4,38 233.4,43.3 C233.5,48.6 230.7,51 225,51 Z M200.3,40.9 L193.7,40.9 C189,40.9 189.1,35.6 193.7,35.6 L208.3,35.6 L205,30.9 L193.2,30.9 C188.6,30.9 184.9,34 184.9,38.2 C184.9,42.2 188.2,45.5 192.9,45.7 L199.5,45.7 C204.2,45.7 204.1,51 199.5,51 L185,51 L185,55.7 L200.1,55.7 C204.7,55.7 208.4,52.6 208.4,48.4 C208.4,44.4 205.1,41.1 200.3,40.9 Z" id="Shape" fill="#000000"></path>
                <polygon id="Shape" fill="#EF572C" points="0.9 43.9 43.5 5.6 2.8 55.9 8.6 55.9 44.3 20.1 18.3 55.9 56.7 55.9 56.7 0.1 0.9 0.1"></polygon>
                <path d="M234.8,17.2 C234.8,17.2 237.3,14.9 237.3,12.1 L237.3,8.5 L232.4,8.5 L232.4,12.1 C232.4,13.8 231.2,14.2 231.2,14.2 L221.5,5.2 L233.7,5.2 L230.9,0.9 L221.8,0.9 C217.5,0.9 215.7,5.9 218.4,8.6 C219.5,9.7 220.7,11.1 220.7,11.1 C220.7,11.1 211.5,10.8 211.5,17.3 C211.5,23.7 216.8,25.7 223.3,25.7 C229.8,25.7 234.6,23.6 234.6,23.6 L236.8,25.7 L243.4,25.7 L234.8,17.2 Z M216.4,17.9 C216.4,14.1 225,14.6 225,14.6 L231.2,20.3 C231.2,20.3 216.4,23.5 216.4,17.9 Z" id="Shape" fill="#EF572C"></path>
            </g>
        </g>
    </g>
</svg>